<svg xmlns="http://www.w3.org/2000/svg" width="15" height="24" viewBox="0 0 15 24">
  <defs>
    <style>
      .cls-1 {
        fill: #333;
        fill-rule: evenodd;
      }
    </style>
  </defs>
  <path id="_67" data-name="67" class="cls-1" d="M1513.94,72h-12.89a1.057,1.057,0,0,0-1.05,1.063V94.937A1.056,1.056,0,0,0,1501.05,96h12.89a1.058,1.058,0,0,0,1.06-1.062V73.062A1.059,1.059,0,0,0,1513.94,72ZM1513,94h-11V74h11V94Zm-4.97-4.375h-1.06a1.063,1.063,0,0,0,0,2.125h1.06A1.063,1.063,0,0,0,1508.03,89.625ZM1505,78h5c0.58,0,1.25-.1,1.25-0.688A1.483,1.483,0,0,0,1510,76h-5a1.483,1.483,0,0,0-1.25,1.312C1503.75,77.9,1504.42,78,1505,78Z" transform="translate(-1500 -72)"/>
</svg>
