<svg xmlns="http://www.w3.org/2000/svg" width="130.344" height="26.156" viewBox="0 0 130.344 26.156">
  <defs>
    <style>
      .cls-1 {
        fill: #f9f8f6;
        fill-rule: evenodd;
      }
    </style>
  </defs>
  <path class="cls-1" d="M685.482,720.419l-1.1.828c-0.73.531-1.738,1.361-3.159,2.313-1.383,1-3.117,2.1-5.105,3.361l-3.241,1.891c-1.17.612-2.386,1.283-3.682,1.931-2.6,1.281-5.438,2.63-8.545,3.8a103.348,103.348,0,0,1-9.9,3.291,107.817,107.817,0,0,1-10.9,2.451,104.369,104.369,0,0,1-23.043,1.447,97.621,97.621,0,0,1-11.166-1.157c-1.794-.318-3.562-0.62-5.269-1.027-1.719-.359-3.379-0.794-4.994-1.225s-3.152-.968-4.656-1.425c-1.484-.52-2.913-1.035-4.266-1.578-1.341-.574-2.651-1.06-3.845-1.646s-2.343-1.1-3.392-1.645l-2.91-1.585c-0.887-.508-1.677-1.02-2.4-1.457s-1.364-.844-1.9-1.23-1-.7-1.372-0.957l-1.131-.808a0.833,0.833,0,0,1,.828-1.436l0.031,0.014,1.244,0.572c0.814,0.364,1.967.967,3.488,1.623l2.494,1.123,2.968,1.24c2.118,0.879,4.539,1.785,7.188,2.733,1.329,0.464,2.734.883,4.166,1.379,1.459,0.415,2.947.912,4.51,1.3,3.1,0.886,6.424,1.6,9.878,2.265,0.864,0.165,1.742.291,2.623,0.44s1.77,0.289,2.671.39q1.347,0.18,2.71.358l2.749,0.275a107.376,107.376,0,0,0,11.223.416,102.124,102.124,0,0,0,11.235-.758,91.7,91.7,0,0,0,10.754-1.982c0.867-.195,1.718-0.42,2.556-0.665l2.5-.707c1.622-.543,3.227-1.026,4.745-1.624,3.072-1.1,5.883-2.376,8.458-3.593,1.279-.628,2.473-1.292,3.625-1.889l3.189-1.853,2.732-1.748c0.844-.542,1.567-1.1,2.248-1.572,1.355-.935,2.384-1.784,3.09-2.335l1.081-.855a0.822,0.822,0,0,1,1.16.137,0.834,0.834,0,0,1-.141,1.166ZM567.693,736.75c-0.315-.8-0.675-1.569-1.024-2.327-0.375-.755-0.773-1.5-1.179-2.241a43.035,43.035,0,0,0-2.727-4.259c-0.5-.681-1.018-1.343-1.544-2s-1.1-1.276-1.657-1.9c-1.145-1.229-2.353-2.391-3.593-3.507a1.509,1.509,0,0,1,.735-2.6l0.243-.044,2.232-.411c0.745-.128,1.486-0.281,2.231-0.4s1.486-.262,2.23-0.38l2.232-.358q2.232-.354,4.5-0.517a28.387,28.387,0,0,1,4.62,0,0.939,0.939,0,0,1,.395,1.7l-0.016.008a20.278,20.278,0,0,1-2.17.96c-0.73.272-1.474,0.519-2.217,0.736a33.678,33.678,0,0,1-4.52,1c-1.524.227-3.055,0.421-4.59,0.547s-3.076.2-4.617,0.242l0.977-2.647c0.554,0.682,1.09,1.376,1.615,2.077s1.023,1.422,1.523,2.138,0.975,1.446,1.457,2.17,0.939,1.463,1.4,2.2,0.9,1.486,1.335,2.233l1.272,2.265c0.416,0.76.883,1.491,1.274,2.264l1.232,2.278,0.008,0.014a0.9,0.9,0,0,1-.439,1.157,0.857,0.857,0,0,1-1.146-.345C567.748,736.776,567.7,736.773,567.693,736.75Z" transform="translate(-555.469 -715.719)"/>
</svg>
