<svg xmlns="http://www.w3.org/2000/svg" width="438.03" height="80" viewBox="0 0 438.03 80">
  <defs>
    <style>
      .cls-1 {
        fill: #e0398a;
        fill-rule: evenodd;
      }
    </style>
  </defs>
  <path id="Shape_43_copy" data-name="Shape 43 copy" class="cls-1" d="M898.812,2966.78l4.437,0.98c2.92,0.62,7.045,1.64,12.664,2.7,5.532,1.15,12.333,2.33,20.133,3.68,3.944,0.59,8.141,1.23,12.566,1.89,4.475,0.56,9.157,1.2,14.084,1.77,9.862,1.1,20.6,2.2,32.082,2.86,11.462,0.73,23.612,1.18,36.2,1.31,12.59,0.16,25.61-.11,38.8-0.68,13.2-.51,26.52-1.59,39.75-2.91,13.26-1.29,26.27-3.21,38.97-5.26,12.72-2.04,24.88-4.63,36.5-7.31,5.75-1.41,11.43-2.79,16.8-4.32,5.46-1.45,10.66-3.01,15.7-4.55s9.74-3.22,14.39-4.75c4.52-1.63,8.87-3.23,12.94-4.84,4-1.67,7.97-3.16,11.46-4.77,3.51-1.61,6.91-3.08,9.95-4.56,2.99-1.51,5.79-2.92,8.37-4.22,2.54-1.33,4.74-2.63,6.79-3.76s3.83-2.16,5.29-3.11q2.235-1.395,3.77-2.36c2.01-1.3,3.08-1.99,3.08-1.99,1.02-.66.85-1.63-0.38-2.19a4.9,4.9,0,0,0-3.67-.02l-0.09.04s-1.28.56-3.68,1.62c-2.41,1.03-5.75,2.66-10.28,4.56-2.23.96-4.7,2.03-7.39,3.19-2.74,1.12-5.71,2.34-8.88,3.63-6.34,2.58-13.67,5.34-21.74,8.29-4.05,1.46-8.4,2.88-12.78,4.44-4.53,1.44-9.09,3.03-14,4.46-9.64,3.05-20.17,5.9-31.2,8.71-2.75.71-5.59,1.34-8.42,2.03s-5.7,1.35-8.63,1.95q-4.38.945-8.79,1.91c-2.99.6-5.99,1.19-9,1.79-12.12,2.28-24.61,4.38-37.35,6s-25.6,3.04-38.43,3.88-25.55,1.46-37.9,1.46c-3.08.05-6.14,0.04-9.18-.01q-4.545-.045-9.01-0.11c-5.93-.22-11.75-0.34-17.382-0.71-11.3-.54-21.879-1.53-31.61-2.52-4.852-.54-9.453-1.18-13.856-1.72-4.351-.65-8.479-1.27-12.358-1.85-3.83-.67-7.414-1.3-10.729-1.88s-6.241-1.25-8.946-1.79c-5.382-1.05-9.591-2.1-12.452-2.77s-4.391-1.03-4.391-1.03c-1.459-.35-3.15,0-3.777.79s0.048,1.69,1.506,2.04C898.763,2966.77,898.794,2966.78,898.812,2966.78Zm410.328-25.63c0.35-1.59.88-3.15,1.38-4.68,0.6-1.54,1.27-3.07,1.98-4.59a58.348,58.348,0,0,1,5.4-8.97c1.07-1.46,2.23-2.9,3.41-4.33,1.22-1.42,2.55-2.82,3.89-4.21,2.76-2.75,5.79-5.41,8.97-8.01,1.58-1.28.91-3.02-1.5-3.88a8.915,8.915,0,0,0-3.27-.47l-0.86.03-7.86.31c-2.62.11-5.24,0.19-7.85,0.32s-5.23.22-7.83,0.36l-7.82.4c-5.21.27-10.4,0.65-15.58,1.17s-10.36,1.14-15.53,2.15c-1.56.31-2.39,1.32-1.81,2.17a3.022,3.022,0,0,0,1.99,1.09l0.06,0.01c2.72,0.38,5.44.51,8.15,0.72,2.69,0.14,5.41.24,8.1,0.29,5.38,0.1,10.75-.03,16.07-0.32s10.64-.67,15.91-1.16,10.52-1.07,15.73-1.72l-5.62-4.33c-1.26,1.5-2.45,3-3.59,4.51s-2.18,3.05-3.23,4.57-1.99,3.07-2.97,4.6-1.86,3.08-2.75,4.63-1.69,3.1-2.51,4.65l-2.27,4.69c-0.72,1.56-1.64,3.1-2.27,4.68l-2.13,4.69-0.01.03c-0.39.83,0.94,1.7,2.5,1.88s3.22-.32,3.54-1.16A1.127,1.127,0,0,0,1309.14,2941.15Z" transform="translate(-897 -2902)"/>
</svg>
