<svg xmlns="http://www.w3.org/2000/svg" width="32" height="32" viewBox="0 0 32 32">
  <defs>
    <style>
      .cls-1 {
        fill: #333;
        fill-rule: evenodd;
      }
    </style>
  </defs>
  <path id="Equaliser" class="cls-1" d="M273,701H245a2,2,0,0,0-2,2v28a2,2,0,0,0,2,2h28a2,2,0,0,0,2-2V703A2,2,0,0,0,273,701Zm0,29a1,1,0,0,1-1,1H246a1,1,0,0,1-1-1V704a1,1,0,0,1,1-1h26a1,1,0,0,1,1,1v26Zm-9-13a5,5,0,0,0-4.9,4H250a1,1,0,0,0,0,2h9.1A5,5,0,1,0,264,717Zm0,8a3,3,0,1,1,3-3A3,3,0,0,1,264,725Zm4-14h-9.1a5,5,0,1,0,0,2H268A1,1,0,0,0,268,711Zm-14,4a3,3,0,1,1,3-3A3,3,0,0,1,254,715Z" transform="translate(-243 -701)"/>
</svg>
