<svg xmlns="http://www.w3.org/2000/svg" width="24" height="24" viewBox="0 0 24 24">
  <defs>
    <style>
      .cls-1 {
        fill: #333;
        fill-rule: evenodd;
      }
    </style>
  </defs>
  <path id="Earth" class="cls-1" d="M222,14612a12,12,0,1,1-12,12A12.018,12.018,0,0,1,222,14612Zm0,1.7a10.3,10.3,0,1,1-10.295,10.3A10.29,10.29,0,0,1,222,14613.7Zm1.714,18a12.221,12.221,0,0,0,5.143-5.1s-2.126-4.3-1.714-5.2c0.6-1.3-1.674-1.6-1.714-1.7,0,0-3.2,2.9-3.429,4.3-0.112.7,1.253,1.9,1.714,3.4A7.855,7.855,0,0,1,223.714,14631.7ZM222,14621.4s-6.943-.9-7.714.9a12.985,12.985,0,0,1,5.143-6S222.836,14619.5,222,14621.4Z" transform="translate(-210 -14612)"/>
</svg>
