<svg xmlns="http://www.w3.org/2000/svg" width="50" height="52.875" viewBox="0 0 50 52.875">
  <defs>
    <style>
      .cls-1 {
        fill: #ffc502;
        fill-rule: evenodd;
      }
    </style>
  </defs>
  <path id="Forma_1" data-name="Forma 1" class="cls-1" d="M552.354,592.743H535.369a2.066,2.066,0,1,1,0-4.131h14.013a2.066,2.066,0,1,0,0-4.131h-7.643V554.327a2.124,2.124,0,0,0-4.247,0v30.154h-2.123a6.508,6.508,0,0,0-2.123.355V550.2a2.1,2.1,0,0,1,2.123-2.065h35.138v22.1a2.124,2.124,0,0,0,4.246,0V546.065A2.094,2.094,0,0,0,572.63,544H535.369A6.291,6.291,0,0,0,529,550.2v40.482a6.292,6.292,0,0,0,6.369,6.2h16.985A2.066,2.066,0,1,0,552.354,592.743ZM578.9,583.78a2.108,2.108,0,0,0-1.723-1.414l-5.31-.736-2.374-4.673a2.15,2.15,0,0,0-3.807,0l-2.374,4.673-5.311.736a2.107,2.107,0,0,0-1.722,1.414,2.027,2.027,0,0,0,.555,2.124l3.817,3.548-0.936,4.986a2.038,2.038,0,0,0,.82,2.026,2.172,2.172,0,0,0,2.232.185l4.829-2.391,4.932,2.41a2.171,2.171,0,0,0,2.24-.2,2.035,2.035,0,0,0,.8-2.046l-1.019-4.982,3.8-3.533A2.027,2.027,0,0,0,578.9,583.78Zm-8.133,3.454a2.033,2.033,0,0,0-.616,1.9l0.4,1.948-2.008-.981a2.176,2.176,0,0,0-1.915.006l-1.965.972,0.372-1.978a2.033,2.033,0,0,0-.622-1.864l-1.483-1.379,2.09-.289a2.116,2.116,0,0,0,1.6-1.13l0.968-1.9,0.967,1.9a2.116,2.116,0,0,0,1.6,1.13l2.089,0.289Z" transform="translate(-529 -544)"/>
</svg>
