<svg xmlns="http://www.w3.org/2000/svg" width="30" height="30" viewBox="0 0 30 30">
  <defs>
    <style>
      .cls-1 {
        fill: #ffc502;
        fill-rule: evenodd;
      }
    </style>
  </defs>
  <path class="cls-1" d="M1218.83,1715.14a1.165,1.165,0,0,0,1.17-1.17v-1.22a5.049,5.049,0,0,0-5.05-5.05h-0.72a3.507,3.507,0,0,0,.2-1.17v-4.28a1.174,1.174,0,0,0,1.18-1.17v-4.1a1.174,1.174,0,0,0-1.18-1.17h-1.24a3.51,3.51,0,0,0-2.45-4.71,3.475,3.475,0,0,0-2.65.42c-0.42.26-1.1,0.83-2.12,2.87v0.01a0.01,0.01,0,0,1-.01-0.01c-1.02-2.04-1.69-2.61-2.11-2.87a3.516,3.516,0,0,0-5.11,4.29h-1.24a1.165,1.165,0,0,0-1.17,1.17v4.1a1.165,1.165,0,0,0,1.17,1.17v4.28a3.282,3.282,0,0,0,.06.63l-1.6-1.46a3.518,3.518,0,0,0-4.91,5.04,0.053,0.053,0,0,1,.03.02l5.97,5.52a16.774,16.774,0,0,0,11.66,4.72h10.12a1.17,1.17,0,1,0,0-2.34h-10.12a14.354,14.354,0,0,1-10.04-4.07,0.022,0.022,0,0,1-.02-0.02l-5.97-5.52a1.2,1.2,0,0,1-.34-0.81,1.156,1.156,0,0,1,.34-0.83,1.12,1.12,0,0,1,.82-0.35h0.02a1.157,1.157,0,0,1,.82.33l0.03,0.03,6.76,6.18a3.517,3.517,0,0,0,2.58,1.13h5.86a1.17,1.17,0,1,0,0-2.34h-5.86a1.189,1.189,0,0,1-.65-0.2l-0.02-.02-0.24-.22a1.173,1.173,0,0,1,.91-1.91h11.24a2.719,2.719,0,0,1,2.71,2.71v1.22A1.165,1.165,0,0,0,1218.83,1715.14Zm-6.74-8.61a1.178,1.178,0,0,1-1.17,1.17h-3.81v-5.45h4.98v4.28Zm1.17-6.62h-6.15v-1.76h6.15v1.76Zm-5.2-4.46a5.454,5.454,0,0,1,1.25-1.93,1.116,1.116,0,0,1,.89-0.14,1.158,1.158,0,0,1,.72.52,1.21,1.21,0,0,1,.14.89,1.183,1.183,0,0,1-.53.73,5.628,5.628,0,0,1-2.28.22c-0.11,0-.22,0-0.33-0.01C1207.97,1695.64,1208.02,1695.54,1208.06,1695.45Zm-7.05-1.55a1.179,1.179,0,0,1,.73-0.52,0.842,0.842,0,0,1,.27-0.04,1.09,1.09,0,0,1,.61.18,5.454,5.454,0,0,1,1.25,1.93c0.05,0.09.09,0.19,0.14,0.28-0.11.01-.21,0.01-0.32,0.01a5.722,5.722,0,0,1-2.29-.22A1.18,1.18,0,0,1,1201.01,1693.9Zm-2.34,4.25h6.1v1.76h-6.1v-1.76Zm6.1,4.1v5.45h-3.75a1.18,1.18,0,0,1-1.18-1.17v-4.28h4.93Z" transform="translate(-1190 -1691)"/>
</svg>
