<svg xmlns="http://www.w3.org/2000/svg" width="22" height="27" viewBox="0 0 22 27">
  <defs>
    <style>
      .cls-1 {
        fill: #ffc502;
        fill-rule: evenodd;
      }
    </style>
  </defs>
  <path id="Forma_1" data-name="Forma 1" class="cls-1" d="M1210.59,1569.67h-3.2a1.056,1.056,0,1,0,0,2.11h3.2A1.055,1.055,0,1,0,1210.59,1569.67Zm0-6.38h-3.2a1.056,1.056,0,1,0,0,2.11h3.2A1.055,1.055,0,1,0,1210.59,1563.29Zm4.33,5.27a1.069,1.069,0,0,0,1.08-1.05v-13.29a4.286,4.286,0,0,0-4.34-4.22h-13.32a4.286,4.286,0,0,0-4.34,4.22v18.56a4.286,4.286,0,0,0,4.34,4.22h13.32a4.286,4.286,0,0,0,4.34-4.22,1.086,1.086,0,0,0-2.17,0,2.143,2.143,0,0,1-2.17,2.11h-13.32a2.143,2.143,0,0,1-2.17-2.11v-18.56a2.143,2.143,0,0,1,2.17-2.11h13.32a2.143,2.143,0,0,1,2.17,2.11v13.29A1.072,1.072,0,0,0,1214.92,1568.56Zm-9.93-14.36a1.11,1.11,0,0,0-1.53.14l-2.34,2.76-0.92-.93a1.128,1.128,0,0,0-1.54-.02,1.039,1.039,0,0,0-.02,1.49l1.17,1.17c0.01,0.01.02,0.01,0.03,0.02a1.9,1.9,0,0,0,1.3.51h0.12a1.906,1.906,0,0,0,1.34-.68l2.53-2.98A1.023,1.023,0,0,0,1204.99,1554.2Zm0,12.86a1.11,1.11,0,0,0-1.53.14l-2.34,2.76-0.93-.92a1.1,1.1,0,0,0-1.53-.02,1.03,1.03,0,0,0-.01,1.49l1.16,1.16a0.053,0.053,0,0,0,.03.02,1.9,1.9,0,0,0,1.3.51h0.12a1.906,1.906,0,0,0,1.34-.68l2.53-2.98A1.023,1.023,0,0,0,1204.99,1567.06Zm5.6-10.26h-3.2a1.056,1.056,0,1,0,0,2.11h3.2A1.055,1.055,0,1,0,1210.59,1556.8Zm-5.6,3.88a1.11,1.11,0,0,0-1.53.14l-2.34,2.76-0.93-.92a1.1,1.1,0,0,0-1.53-.02,1.03,1.03,0,0,0-.01,1.49l1.16,1.16a0.053,0.053,0,0,0,.03.02,1.9,1.9,0,0,0,1.3.51h0.12a1.906,1.906,0,0,0,1.34-.68l2.53-2.98A1.023,1.023,0,0,0,1204.99,1560.68Z" transform="translate(-1194 -1550)"/>
</svg>
