<svg xmlns="http://www.w3.org/2000/svg" width="30" height="30" viewBox="0 0 30 30">
  <defs>
    <style>
      .cls-1 {
        fill: #ffc502;
        fill-rule: evenodd;
      }
    </style>
  </defs>
  <path class="cls-1" d="M1191.17,1626.21h13.65a1.17,1.17,0,1,0,0-2.34h-13.65A1.17,1.17,0,0,0,1191.17,1626.21Zm20.69,3.81a3.523,3.523,0,0,0,3.51-3.52v-0.29h3.46a1.17,1.17,0,0,0,0-2.34h-3.46v-0.35a3.515,3.515,0,1,0-7.03,0v2.98A3.525,3.525,0,0,0,1211.86,1630.02Zm-1.18-6.5a1.175,1.175,0,1,1,2.35,0v2.98a1.175,1.175,0,1,1-2.35,0v-2.98Zm-5.86,20.33h-13.65a1.17,1.17,0,0,0,0,2.34h13.65A1.17,1.17,0,1,0,1204.82,1643.85Zm-13.65-7.68h3.34a1.175,1.175,0,0,0,0-2.35h-3.34A1.175,1.175,0,0,0,1191.17,1636.17Zm27.66-2.35h-13.77v-0.4a3.515,3.515,0,1,0-7.03,0v3.04a3.515,3.515,0,1,0,7.03,0v-0.29h13.77A1.175,1.175,0,0,0,1218.83,1633.82Zm-16.12,2.64a1.17,1.17,0,1,1-2.34,0v-3.04a1.17,1.17,0,0,1,2.34,0v3.04Zm16.12,7.39h-3.46v-0.35a3.515,3.515,0,1,0-7.03,0v2.98a3.515,3.515,0,1,0,7.03,0v-0.29h3.46A1.17,1.17,0,0,0,1218.83,1643.85Zm-5.81,2.63a1.17,1.17,0,1,1-2.34,0v-2.98a1.17,1.17,0,1,1,2.34,0v2.98Z" transform="translate(-1190 -1620)"/>
</svg>
