<svg xmlns="http://www.w3.org/2000/svg" width="50" height="50" viewBox="0 0 50 50">
  <defs>
    <style>
      .cls-1 {
        fill: #ffc502;
        fill-rule: evenodd;
      }
    </style>
  </defs>
  <path class="cls-1" d="M986.048,563.336a1.953,1.953,0,0,0-1.953,1.953v20.9a3.912,3.912,0,0,1-2.489,3.638,4.837,4.837,0,0,0-.057-1.66A18.985,18.985,0,0,0,969.8,574.387a10.156,10.156,0,1,0-13.458-.05,18.985,18.985,0,0,0-11.885,13.829,4.862,4.862,0,0,0-.058,1.66,3.913,3.913,0,0,1-2.488-3.638V551.813a3.912,3.912,0,0,1,3.907-3.907h21a1.953,1.953,0,1,0,0-3.9h-21A7.821,7.821,0,0,0,938,551.813v34.375A7.821,7.821,0,0,0,945.813,594h34.375A7.821,7.821,0,0,0,988,586.188v-20.9A1.953,1.953,0,0,0,986.048,563.336ZM963.1,560.512a6.25,6.25,0,1,1-6.25,6.25A6.257,6.257,0,0,1,963.1,560.512Zm-14.631,29.235a0.916,0.916,0,0,1-.189-0.781,15.046,15.046,0,0,1,29.451,0,0.936,0.936,0,0,1-.922,1.128H949.2A0.926,0.926,0,0,1,948.464,589.747Zm24.174-40.767h3.6a1.124,1.124,0,0,0,1.176-.712l1.112-3.42a1.24,1.24,0,0,1,2.352,0l1.112,3.42a1.124,1.124,0,0,0,1.175.712h3.6a1.318,1.318,0,0,1,.727,2.357l-2.912,2.1a1.221,1.221,0,0,0-.449,1.372l1.173,3.4a1.249,1.249,0,0,1,.062.44,1.289,1.289,0,0,1-2.025.933l-2.911-2.1a1.246,1.246,0,0,0-1.454,0l-2.911,2.1a1.288,1.288,0,0,1-2.025-.933,1.251,1.251,0,0,1,.063-0.44l1.172-3.4a1.223,1.223,0,0,0-.449-1.372l-2.912-2.1A1.318,1.318,0,0,1,972.638,548.98Z" transform="translate(-938 -544)"/>
</svg>
