<svg xmlns="http://www.w3.org/2000/svg" width="50" height="49.594" viewBox="0 0 50 49.594">
  <defs>
    <style>
      .cls-1 {
        fill: #ffc502;
        fill-rule: evenodd;
      }
    </style>
  </defs>
  <path class="cls-1" d="M241.632,568.707a15.953,15.953,0,0,0-12.8,0c-2.172,1.077-3.368,2.665-3.368,4.472q0,0.087,0,.171c0,0.04,0,.079,0,0.119v2.394a15.828,15.828,0,0,0-12.257.2c-2.172,1.077-3.368,2.665-3.368,4.471,0,0.024,0,.047,0,0.07s0,0.019,0,.027v7.554a4,4,0,0,0,.478,1.9c-7.063-.5-11.416-5.5-11.416-13.227,0-5.37,2.924-10.351,8.691-14.8l0.185-.142a22.912,22.912,0,0,0-4.481,13.105,1.953,1.953,0,0,0,3.906,0c0-6,3.507-12.065,10.424-18.032l0.089-.077h5.9a41.063,41.063,0,0,1,10.609,6.657,1.964,1.964,0,0,0,2.758-.142,1.926,1.926,0,0,0-.144-2.736,44.3,44.3,0,0,0-10.418-6.777l2.625-6.66a1.932,1.932,0,0,0,.134-0.7v-0.193a1.931,1.931,0,0,0-.843-1.594,1.975,1.975,0,0,0-1.8-.219,17.866,17.866,0,0,1-13.071,0,1.971,1.971,0,0,0-1.8.219,1.931,1.931,0,0,0-.843,1.594v0.193a1.932,1.932,0,0,0,.134.7l2.625,6.661a45.9,45.9,0,0,0-8.3,5.024,30.26,30.26,0,0,0-6.99,7.321,19.169,19.169,0,0,0-3.289,10.6c0,5.066,1.547,9.358,4.474,12.408a16.044,16.044,0,0,0,11.507,4.727h0.047l8.569,0h0.256c0.028,0,.054,0,0.081,0a14.544,14.544,0,0,0,6.073-1.335,8.351,8.351,0,0,0,1.415-.878,8.277,8.277,0,0,0,1.414.878,15.955,15.955,0,0,0,12.8,0C243.8,591.584,245,590,245,588.189v-15.01C245,571.372,243.8,569.784,241.632,568.707Zm-17.57-19.451-1.489,3.78h-5.146l-1.489-3.78A21.491,21.491,0,0,0,224.062,549.256Zm0.2,39.94a10.91,10.91,0,0,1-4.639.93H219.6a10.912,10.912,0,0,1-4.638-.93,2.1,2.1,0,0,1-1.208-1.007v-2.933a15.215,15.215,0,0,0,5.859,1.093h0.219a1.937,1.937,0,1,0-.046-3.874l-0.173,0a10.925,10.925,0,0,1-4.651-.93,1.024,1.024,0,1,1,0-2.014,10.925,10.925,0,0,1,4.651-.93,10.541,10.541,0,0,1,4.627.966,2.214,2.214,0,0,1,1.233,1.067v7.554A2.1,2.1,0,0,1,224.26,589.2Zm16.834-1.007a2.1,2.1,0,0,1-1.209,1.007,12.1,12.1,0,0,1-9.3,0,2.1,2.1,0,0,1-1.208-1.007v-2.933a15.215,15.215,0,0,0,5.859,1.093h0.222a1.937,1.937,0,1,0-.026-3.874H235.4l-0.17,0a10.925,10.925,0,0,1-4.651-.93,2.093,2.093,0,0,1-1.208-1.008V577.9a15.238,15.238,0,0,0,5.859,1.092c0.074,0,.148,0,0.222,0a1.937,1.937,0,1,0-.052-3.873h-0.17a10.94,10.94,0,0,1-4.651-.93,1.024,1.024,0,1,1,0-2.015,12.107,12.107,0,0,1,9.3,0,2.1,2.1,0,0,1,1.209,1.008v15.01Z" transform="translate(-195 -544.406)"/>
</svg>
